fd_2_states
version=1
nRows=31
nColumns=17
inDegrees=yes

# SIMM Motion File Header:
name fd_2_states
datacolumns 17
datarows 31
otherdata 1
range 0.030000 0.063862
endheader
time	/jointset/r_shoulder/r_shoulder_elev/value	/jointset/r_shoulder/r_shoulder_elev/speed	/jointset/r_elbow/r_elbow_flex/value	/jointset/r_elbow/r_elbow_flex/speed	/forceset/TRIlong/activation	/forceset/TRIlong/fiber_length	/forceset/TRIlat/activation	/forceset/TRIlat/fiber_length	/forceset/TRImed/activation	/forceset/TRImed/fiber_length	/forceset/BIClong/activation	/forceset/BIClong/fiber_length	/forceset/BICshort/activation	/forceset/BICshort/fiber_length	/forceset/BRA/activation	/forceset/BRA/fiber_length
      0.030000	      0.000000	      0.000000	      4.200010	    140.000003	      0.028970	      0.137756	      0.020000	      0.071844	      0.020000	      0.066908	      0.020000	      0.147824	      0.020000	      0.147170	      0.046610	      0.092316
      0.030061	     -0.000000	     -0.000234	      4.208497	    140.000755	      0.028963	      0.137759	      0.020000	      0.071847	      0.020000	      0.066911	      0.020020	      0.147822	      0.020661	      0.147168	      0.046754	      0.092314
      0.030121	     -0.000000	     -0.000462	      4.216984	    140.001479	      0.028956	      0.137762	      0.020000	      0.071850	      0.020000	      0.066914	      0.020046	      0.147821	      0.021531	      0.147166	      0.046752	      0.092312
      0.030424	     -0.000000	     -0.001573	      4.259420	    140.004887	      0.028919	      0.137778	      0.020000	      0.071866	      0.020000	      0.066930	      0.020173	      0.147813	      0.025706	      0.147153	      0.046744	      0.092301
      0.031671	     -0.000006	     -0.009024	      4.433979	    140.026931	      0.028769	      0.137843	      0.020000	      0.071930	      0.020000	      0.066994	      0.020625	      0.147778	      0.040249	      0.147063	      0.046710	      0.092256
      0.034666	     -0.000114	     -0.076838	      4.853663	    140.237993	      0.028420	      0.138004	      0.020000	      0.072085	      0.020000	      0.067147	      0.021359	      0.147693	      0.063320	      0.146783	      0.046631	      0.092150
      0.037662	     -0.000555	     -0.233166	      5.274401	    140.732277	      0.028085	      0.138166	      0.020000	      0.072240	      0.020000	      0.067302	      0.021777	      0.147606	      0.076611	      0.146522	      0.046556	      0.092044
      0.038882	     -0.000893	     -0.321811	      5.446243	    141.012844	      0.027952	      0.138233	      0.020000	      0.072304	      0.020000	      0.067366	      0.021890	      0.147571	      0.080335	      0.146426	      0.046526	      0.092001
      0.039521	     -0.001115	     -0.373526	      5.536457	    141.176467	      0.027884	      0.138268	      0.020000	      0.072338	      0.020000	      0.067399	      0.021940	      0.147553	      0.082002	      0.146378	      0.046511	      0.091978
      0.039988	     -0.001298	     -0.413466	      5.602404	    141.302785	      0.027834	      0.138293	      0.020000	      0.072362	      0.020000	      0.067424	      0.021973	      0.147539	      0.083112	      0.146345	      0.046499	      0.091962
      0.040093	     -0.001342	     -0.422712	      5.617265	    141.332016	      0.027823	      0.138299	      0.020000	      0.072368	      0.020000	      0.067429	      0.022328	      0.147536	      0.083138	      0.146337	      0.047017	      0.091958
      0.040198	     -0.001387	     -0.432078	      5.632129	    141.361617	      0.027812	      0.138305	      0.020000	      0.072373	      0.020000	      0.067435	      0.022974	      0.147533	      0.083099	      0.146330	      0.047984	      0.091954
      0.040724	     -0.001627	     -0.481996	      5.706497	    141.519125	      0.027756	      0.138333	      0.020000	      0.072401	      0.020000	      0.067462	      0.026005	      0.147513	      0.082902	      0.146294	      0.052528	      0.091933
      0.042570	     -0.002728	     -0.733965	      5.968374	    142.308552	      0.027565	      0.138434	      0.020000	      0.072499	      0.020000	      0.067560	      0.034455	      0.147424	      0.082227	      0.146182	      0.065307	      0.091843
      0.044416	     -0.004436	     -1.144396	      6.232146	    143.584162	      0.027378	      0.138536	      0.020000	      0.072598	      0.020000	      0.067658	      0.040383	      0.147330	      0.081572	      0.146087	      0.074433	      0.091747
      0.047050	     -0.008513	     -1.999513	      6.613720	    146.225921	      0.027120	      0.138682	      0.020000	      0.072741	      0.020000	      0.067800	      0.045997	      0.147203	      0.080670	      0.145969	      0.083305	      0.091617
      0.049685	     -0.015191	     -3.105155	      7.003312	    149.627162	      0.026871	      0.138830	      0.020000	      0.072887	      0.020000	      0.067946	      0.049487	      0.147086	      0.079807	      0.145864	      0.089022	      0.091495
      0.049989	     -0.016157	     -3.245154	      7.048885	    150.057091	      0.026843	      0.138847	      0.020000	      0.072904	      0.020000	      0.067964	      0.049795	      0.147073	      0.079709	      0.145853	      0.089537	      0.091482
      0.050108	     -0.016545	     -3.300363	      7.066701	    150.226595	      0.026832	      0.138854	      0.020000	      0.072911	      0.020000	      0.067970	      0.050327	      0.147068	      0.079778	      0.145848	      0.089564	      0.091476
      0.050226	     -0.016940	     -3.355894	      7.084538	    150.397070	      0.026821	      0.138860	      0.020000	      0.072918	      0.020000	      0.067977	      0.051127	      0.147063	      0.080056	      0.145844	      0.089548	      0.091471
      0.050820	     -0.019015	     -3.638025	      7.174027	    151.263182	      0.026766	      0.138894	      0.020000	      0.072952	      0.020000	      0.068011	      0.054864	      0.147036	      0.081364	      0.145821	      0.089465	      0.091445
      0.053786	     -0.031992	     -5.130404	      7.629488	    155.863042	      0.026501	      0.139064	      0.020000	      0.073124	      0.020000	      0.068182	      0.068502	      0.146876	      0.086289	      0.145695	      0.089063	      0.091324
      0.055960	     -0.044384	     -6.273542	      7.972192	    159.418366	      0.026313	      0.139190	      0.020000	      0.073254	      0.020000	      0.068312	      0.074826	      0.146758	      0.088656	      0.145599	      0.088781	      0.091238
      0.058135	     -0.059286	     -7.437303	      8.322732	    163.064683	      0.026131	      0.139318	      0.020000	      0.073388	      0.020000	      0.068444	      0.079201	      0.146644	      0.090327	      0.145501	      0.088508	      0.091152
      0.059193	     -0.067460	     -8.006067	      8.496294	    164.855540	      0.026044	      0.139381	      0.020000	      0.073454	      0.020000	      0.068511	      0.080822	      0.146590	      0.090954	      0.145453	      0.088378	      0.091110
      0.059807	     -0.072477	     -8.336377	      8.597840	    165.897810	      0.025994	      0.139418	      0.020000	      0.073493	      0.020000	      0.068550	      0.081641	      0.146560	      0.091272	      0.145426	      0.088304	      0.091085
      0.060046	     -0.074482	     -8.464765	      8.637483	    166.303345	      0.025975	      0.139432	      0.020000	      0.073508	      0.020000	      0.068565	      0.082045	      0.146548	      0.091434	      0.145415	      0.088266	      0.091076
      0.060227	     -0.076022	     -8.562048	      8.667591	    166.610785	      0.025960	      0.139443	      0.020000	      0.073520	      0.020000	      0.068577	      0.083096	      0.146539	      0.091882	      0.145407	      0.088164	      0.091069
      0.060408	     -0.077579	     -8.659315	      8.697755	    166.918322	      0.025946	      0.139454	      0.020000	      0.073532	      0.020000	      0.068588	      0.084185	      0.146530	      0.092348	      0.145399	      0.088056	      0.091061
      0.061312	     -0.085630	     -9.145485	      8.849408	    168.458092	      0.025874	      0.139509	      0.020000	      0.073590	      0.020000	      0.068646	      0.089148	      0.146483	      0.094483	      0.145356	      0.087519	      0.091025
      0.063862	     -0.110701	    -10.516113	      9.284585	    172.828627	      0.025675	      0.139664	      0.020000	      0.073757	      0.020000	      0.068813	      0.099686	      0.146338	      0.099077	      0.145229	      0.086051	      0.090922
